# xmcd
#
# Track frame offsets: 
#        150
#        10052
#        20372
#        32773
#        44022
#        52363
#        63164
#        74135
#        86717
#        98790
#        106720
#        118700
#
# Disc length: 1733 seconds
#
# Revision: 0
# Processed by: cddbd v1.5.2PL0 Copyright (c) Steve Scherf et al.
# Submitted via: ExactAudioCopy v0.99pb4
#
DISCID=a406c30c
DTITLE=Johnny Cash - Sings The Songs That Made Him Famous
DYEAR=1958
DGENRE=Country
TTITLE0=Ballad of a Teenage Queen
TTITLE1=There You Go
TTITLE2=I Walk The Line
TTITLE3=Don't Make Me Go
TTITLE4=Guess Things Happen That Way
TTITLE5=Train of Love
TTITLE6=The ways of a woman in love
TTITLE7=Next In Line
TTITLE8=You're the nearest thing to heaven
TTITLE9=I Can't Help It
TTITLE10=Home of The Blues
TTITLE11=Big River
EXTD=
EXTT0=
EXTT1=
EXTT2=
EXTT3=
EXTT4=
EXTT5=
EXTT6=
EXTT7=
EXTT8=
EXTT9=
EXTT10=
EXTT11=
PLAYORDER=
